<svg xmlns="http://www.w3.org/2000/svg" xmlns:xlink="http://www.w3.org/1999/xlink" viewBox="0 0 244.13 50.63"><defs><style>.cls-1{fill:none;}.cls-2{fill:#0f1136;}.cls-3{clip-path:url(#clip-path);}.cls-4{fill:#00aeef;}</style><clipPath id="clip-path" transform="translate(0)"><rect class="cls-1" width="244.13" height="50.63"/></clipPath></defs><g id="Layer_2" data-name="Layer 2"><g id="Layer_1-2" data-name="Layer 1"><polygon class="cls-2" points="104.74 0.16 104.74 22.35 120.43 22.35 120.43 17.91 109.71 17.91 109.71 0.16 104.74 0.16"/><polygon class="cls-2" points="91.67 0.16 87.78 14.2 83.85 0.16 78.49 0.16 72.04 22.35 77.64 22.35 81.53 8.69 84.97 22.35 90 22.35 94.02 8.69 97.54 22.35 102.58 22.35 97.16 0.16 91.67 0.16"/><g class="cls-3"><path class="cls-2" d="M128.28,13.46v8.86h-5V13.46c-2.69-4.15-6-9.15-8.67-13.29h6l5.19,8.45c1.71-2.79,3.58-5.7,5.25-8.45H137Zm25.54,8.86h-5.44l-1.33-1.61a9.14,9.14,0,0,1-5.76,2c-4.46,0-7.34-2.43-7.34-6.39,0-3.8,3.13-5.51,4.27-6.3a6.86,6.86,0,0,1-2-4.65C136.2,2,139,0,142.46,0A11,11,0,0,1,149,2.35L146.83,6a7.35,7.35,0,0,0-4.56-2.15c-1.07,0-1.74.57-1.74,1.46a3.16,3.16,0,0,0,.95,2.08l5.6,6.78a15.71,15.71,0,0,0,1.08-3.07l4,1.07a17,17,0,0,1-2.25,5.38Zm-13-9.18c-1.55.92-2.28,1.9-2.28,3.14,0,1.58,1.3,2.34,2.81,2.34a5.79,5.79,0,0,0,3.17-1Zm18.38,1v8.13h-5V.17h10c5.41,0,8.74,2.5,8.67,6.93a7,7,0,0,1-5,6.26A24.38,24.38,0,0,0,175,20.77l-3.8,2.72c-3.48-1.71-7.18-7.25-8.45-9.3Zm0-4.53h5.48c1.8,0,3.19-1.11,3.19-2.56s-1.2-2.47-3.29-2.47h-5.38Z" transform="translate(0)"/><path class="cls-2" d="M69.44.15C67.91,4.6,66.55,10.22,64.7,15,62.84,10.22,61.48,4.6,60,.15H54.53l7.09,22.21h6.15L74.86.15Z" transform="translate(0)"/><path class="cls-4" d="M21.18,38.87,10.61,49.44h7.07l7-7,7,7h7.07L24.72,35.33ZM35.33,24.72,49.44,38.83V31.75l-7-7,7-7V10.61ZM0,17.68l7,7-7,7v7.08L14.11,24.72,0,10.61ZM31.76,0l-7,7-7-7H10.61L24.72,14.11,38.83,0ZM45.9,0,24.72,21.18,3.54,0H0V3.54L21.18,24.72,0,45.9v3.54H3.54L24.72,28.25,45.9,49.44h3.54V45.9L28.26,24.72,49.44,3.54V0Z" transform="translate(0)"/><path class="cls-2" d="M111.21,49.87l-3.9-13.54s-2.07,9.24-3,13.54H99.36l4.94-22h5.31l3.9,13.93,3.86-13.93h5.44l4.91,22h-5l-3-13.54-4,13.54Z" transform="translate(0)"/><path class="cls-2" d="M141.37,49.87l-3.9-13.54s-2.07,9.24-3,13.54h-4.93l4.93-22h5.32l3.9,13.93,3.86-13.93H153l4.9,22h-5l-3-13.54-4,13.54Z" transform="translate(0)"/><path class="cls-2" d="M198.52,50.35A7.58,7.58,0,0,1,194.93,48a68.4,68.4,0,0,1-4.43-6.22h-3.58v8.07H182v-22h9.93c5.38,0,8.68,2.48,8.62,6.88a7,7,0,0,1-4.78,6.32,44.84,44.84,0,0,0,3.33,4.37,9.05,9.05,0,0,0,3,2ZM186.92,37.3h5.43c1.8,0,3.18-1.1,3.18-2.55s-1.2-2.45-3.27-2.45h-5.34Z" transform="translate(0)"/><rect class="cls-2" x="160.82" y="45.45" width="17.44" height="4.4"/><rect class="cls-2" x="160.82" y="36.68" width="17.44" height="4.4"/><rect class="cls-2" x="160.82" y="27.9" width="17.44" height="4.4"/><rect class="cls-2" x="226.69" y="45.45" width="17.44" height="4.4"/><rect class="cls-2" x="226.69" y="36.68" width="17.44" height="4.4"/><rect class="cls-2" x="226.69" y="27.9" width="17.44" height="4.4"/><path class="cls-2" d="M87.7,50A11.33,11.33,0,1,0,76.37,38.7,11.34,11.34,0,0,0,87.7,50m0-17.91a6.58,6.58,0,1,1-6.58,6.58,6.59,6.59,0,0,1,6.58-6.58" transform="translate(0)"/><path class="cls-2" d="M220,42.64a6.76,6.76,0,1,1,0-7.27l3.49-3.49a11.63,11.63,0,1,0,0,14.25Z" transform="translate(0)"/><path class="cls-2" d="M72.25,42.47a6.9,6.9,0,1,1,0-7.42l3.57-3.57a11.88,11.88,0,1,0,0,14.55Z" transform="translate(0)"/></g></g></g></svg>