<svg width="243" height="51" viewBox="0 0 243 51" fill="none" xmlns="http://www.w3.org/2000/svg">
<g clip-path="url(#clip0_210_61)">
<path d="M103.87 0.160004V22.16H119.43V17.76H108.8V0.160004H103.87Z" fill="white"/>
<path d="M90.9099 0.160004L87.0499 14.08L83.1499 0.160004H77.8399L71.4399 22.16H76.9999L80.8599 8.61L84.2599 22.16H89.2499L93.2399 8.61L96.7299 22.16H101.73L96.3499 0.160004H90.9099Z" fill="white"/>
<path d="M127.21 13.35V22.13H122.28V13.35C119.62 9.24 116.35 4.28 113.69 0.159999H119.69L124.83 8.54C126.53 5.78 128.38 2.9 130.04 0.159999H135.91L127.21 13.35ZM152.54 22.13H147.15L145.83 20.53C144.214 21.8356 142.197 22.5422 140.12 22.53C135.69 22.53 132.84 20.12 132.84 16.19C132.84 12.43 135.94 10.73 137.07 9.95C135.838 8.722 135.122 7.06893 135.07 5.33C135.07 1.98 137.86 0.0299988 141.28 0.0299988C143.624 0.0738555 145.891 0.877446 147.74 2.32L145.61 6C144.403 4.77683 142.801 4.02196 141.09 3.87C140.02 3.87 139.37 4.43 139.37 5.31C139.408 6.09462 139.744 6.83512 140.31 7.38L145.86 14.1C146.328 13.1083 146.686 12.0689 146.93 11L150.88 12.07C150.45 13.9653 149.696 15.7719 148.65 17.41L152.54 22.13ZM139.62 13C138.08 13.91 137.36 14.89 137.36 16.11C137.36 17.68 138.64 18.43 140.15 18.43C141.272 18.4125 142.364 18.0647 143.29 17.43L139.62 13ZM157.85 14V22.06H152.92V0.159999H162.84C168.2 0.159999 171.5 2.64 171.43 7.04C171.343 8.45388 170.825 9.80711 169.945 10.9174C169.065 12.0277 167.866 12.8418 166.51 13.25C168.295 16.1695 170.681 18.6752 173.51 20.6L169.74 23.3C166.29 21.6 162.62 16.11 161.36 14.07L157.85 14ZM157.85 9.51H163.28C165.07 9.51 166.45 8.41 166.45 6.97C166.45 5.53 165.25 4.52 163.18 4.52H157.85V9.51Z" fill="white"/>
<path d="M68.8598 0.150002C67.3398 4.56 65.9898 10.15 64.1598 14.9C62.3198 10.14 60.9998 4.56 59.4498 0.150002H54.0698L61.0698 22.15H67.1998L74.1998 0.150002H68.8598Z" fill="white"/>
<path d="M21 38.54L10.52 49H17.52L24.52 42L31.52 49H38.52L24.52 35L21 38.54ZM35 24.54L49 38.54V31.54L42 24.54L49 17.54V10.54L35 24.54ZM0 17.54L7 24.54L0 31.54V38.54L14 24.54L0 10.54V17.54ZM31.49 0L24.49 7L17.49 0H10.49L24.49 14L38.49 0H31.49ZM45.49 0L24.49 21L3.51 0H0V3.51L21 24.51L0 45.51V49H3.51L24.51 28L45.51 49H49V45.52L28 24.52L49 3.52V0H45.49Z" fill="white"/>
<path d="M110.29 49.46L106.42 36C106.42 36 104.36 45.17 103.42 49.44H98.52L103.42 27.62H108.69L112.55 41.43L116.39 27.62H121.78L126.64 49.44H121.64L118.7 36L114.7 49.44L110.29 49.46Z" fill="white"/>
<path d="M140.2 49.46L136.33 36C136.33 36 134.27 45.17 133.33 49.44H128.43L133.33 27.62H138.6L142.46 41.43L146.3 27.62H151.69L156.55 49.44H151.6L148.6 36L144.6 49.44L140.2 49.46Z" fill="white"/>
<path d="M196.86 49.93C195.481 49.5145 194.249 48.7129 193.31 47.62C191.73 45.6464 190.261 43.5866 188.91 41.45H185.36V49.45H180.47V27.64H190.32C195.65 27.64 198.92 30.1 198.86 34.47C198.787 35.8677 198.296 37.2113 197.451 38.3272C196.606 39.4431 195.446 40.28 194.12 40.73C195.128 42.2439 196.234 43.6903 197.43 45.06C198.283 45.9246 199.304 46.6052 200.43 47.06L196.86 49.93ZM185.36 37H190.75C192.53 37 193.9 35.91 193.9 34.48C193.9 33.05 192.72 32 190.66 32H185.36V37Z" fill="white"/>
<path d="M176.79 45.07H159.49V49.43H176.79V45.07Z" fill="white"/>
<path d="M176.79 36.37H159.49V40.74H176.79V36.37Z" fill="white"/>
<path d="M176.79 27.67H159.49V32.04H176.79V27.67Z" fill="white"/>
<path d="M242.1 45.07H224.8V49.43H242.1V45.07Z" fill="white"/>
<path d="M242.1 36.37H224.8V40.74H242.1V36.37Z" fill="white"/>
<path d="M242.1 27.67H224.8V32.04H242.1V27.67Z" fill="white"/>
<path d="M87 49.62C89.2218 49.6141 91.3919 48.9498 93.2364 47.7111C95.0808 46.4725 96.5168 44.715 97.363 42.6606C98.2091 40.6063 98.4274 38.3472 97.9903 36.1688C97.5533 33.9905 96.4804 31.9905 94.9073 30.4216C93.3341 28.8526 91.3313 27.7851 89.1518 27.3538C86.9723 26.9226 84.7138 27.1469 82.6617 27.9985C80.6096 28.8501 78.8559 30.2908 77.6222 32.1385C76.3884 33.9863 75.73 36.1582 75.73 38.38C75.7313 39.8582 76.0239 41.3217 76.5911 42.6867C77.1583 44.0518 77.989 45.2917 79.0356 46.3356C80.0823 47.3794 81.3244 48.2068 82.691 48.7703C84.0575 49.3339 85.5218 49.6226 87 49.62V49.62ZM87 31.85C88.2915 31.85 89.554 32.233 90.6279 32.9505C91.7017 33.668 92.5387 34.6879 93.0329 35.8811C93.5272 37.0743 93.6565 38.3872 93.4045 39.6539C93.1525 40.9206 92.5306 42.0842 91.6174 42.9974C90.7041 43.9106 89.5406 44.5326 88.2739 44.7845C87.0072 45.0365 85.6943 44.9072 84.5011 44.4129C83.3079 43.9187 82.288 43.0817 81.5705 42.0079C80.853 40.934 80.47 39.6715 80.47 38.38C80.4726 36.6489 81.1615 34.9895 82.3855 33.7655C83.6095 32.5415 85.2689 31.8526 87 31.85" fill="white"/>
<path d="M218.14 42.28C217.361 43.5028 216.206 44.4399 214.849 44.9506C213.493 45.4613 212.007 45.518 210.615 45.1123C209.223 44.7066 208 43.8603 207.13 42.7005C206.26 41.5406 205.789 40.1299 205.789 38.68C205.789 37.2301 206.26 35.8194 207.13 34.6595C208 33.4997 209.223 32.6534 210.615 32.2477C212.007 31.842 213.493 31.8987 214.849 32.4094C216.206 32.9201 217.361 33.8572 218.14 35.08L221.61 31.62C220.137 29.72 218.107 28.3281 215.804 27.6389C213.5 26.9497 211.039 26.9977 208.765 27.7763C206.49 28.5548 204.516 30.0249 203.118 31.9808C201.72 33.9368 200.968 36.2808 200.968 38.685C200.968 41.0892 201.72 43.4332 203.118 45.3892C204.516 47.3451 206.49 48.8152 208.765 49.5937C211.039 50.3723 213.5 50.4203 215.804 49.7311C218.107 49.0419 220.137 47.65 221.61 45.75L218.14 42.28Z" fill="white"/>
<path d="M71.6501 42.12C70.854 43.3673 69.6749 44.3228 68.2897 44.8431C66.9045 45.3635 65.388 45.4206 63.9676 45.0059C62.5472 44.5913 61.2996 43.7272 60.4119 42.5433C59.5242 41.3595 59.0444 39.9197 59.0444 38.44C59.0444 36.9603 59.5242 35.5205 60.4119 34.3367C61.2996 33.1528 62.5472 32.2887 63.9676 31.8741C65.388 31.4594 66.9045 31.5165 68.2897 32.0369C69.6749 32.5572 70.854 33.5127 71.6501 34.76L75.1901 31.22C73.6854 29.2781 71.6113 27.8551 69.258 27.1503C66.9046 26.4454 64.3898 26.494 62.0654 27.2891C59.741 28.0842 57.7234 29.5861 56.2948 31.5847C54.8662 33.5832 54.0981 35.9784 54.0981 38.435C54.0981 40.8916 54.8662 43.2868 56.2948 45.2853C57.7234 47.2839 59.741 48.7858 62.0654 49.5809C64.3898 50.376 66.9046 50.4246 69.258 49.7197C71.6113 49.0149 73.6854 47.5919 75.1901 45.65L71.6501 42.12Z" fill="white"/>
</g>
<defs>
<clipPath id="clip0_210_61">
<rect width="242.1" height="50.21" fill="white"/>
</clipPath>
</defs>
</svg>
